<svg xmlns="http://www.w3.org/2000/svg" width="105.932" height="30" viewBox="0 0 105.932 30"><defs><style>.a{isolation:isolate;}.b{fill:#11181e;}</style></defs><g transform="translate(-115 -2433.992)"><g class="a" transform="translate(115 2433.992)"><path class="b" d="M134.133,153.566c0-1.355-.758-2.042-2.253-2.042h-8.654V135.413c0-1.493-.691-2.218-2.112-2.218h-.738c-1.355,0-2.042.746-2.042,2.218v17.7a2.4,2.4,0,0,0,2.569,2.71h10.977c1.474,0,2.253-.73,2.253-2.112Z" transform="translate(-118.335 -130.762)"/><path class="b" d="M216.869,161.559c5.418,0,9.112,3.694,9.112,9.041s-3.729,9.007-9.183,9.007-9.112-3.659-9.112-9.077C207.687,165.253,211.416,161.559,216.869,161.559Zm-.035,3.869a4.784,4.784,0,0,0-4.785,5.1c0,2.991,2.005,5.172,4.785,5.172a4.8,4.8,0,0,0,4.749-5.1C221.583,167.575,219.613,165.429,216.834,165.429Z" transform="translate(-191.854 -154.1)"/><path class="b" d="M492.8,165.142v14.53c0,.176-.879.563-1.864.563a2.752,2.752,0,0,1-2.78-1.865,5.8,5.8,0,0,1-.176-.95,6.482,6.482,0,0,1-5.664,3.131c-4.468,0-6.333-3.131-6.333-7.107v-8.3c0-1.794.915-2.392,2.146-2.392h.563c1.3,0,2.216.563,2.216,2.392v7.564c0,2.322,1.2,3.694,3.237,3.694a4.173,4.173,0,0,0,3.729-2.252v-9.007c0-1.794.88-2.392,2.146-2.392h.528C491.887,162.75,492.8,163.313,492.8,165.142Z" transform="translate(-412.609 -155.08)"/><path class="b" d="M588.866,119.466a2.576,2.576,0,1,1-2.78,2.569A2.482,2.482,0,0,1,588.866,119.466Zm-2.5,10.062c0-1.794.95-2.392,2.217-2.392h.527c1.3,0,2.217.563,2.217,2.392v12.736c0,1.794-.915,2.357-2.217,2.357h-.492c-1.337,0-2.251-.528-2.251-2.357Z" transform="translate(-503.2 -119.466)"/><path class="b" d="M629.579,178.869a2.938,2.938,0,0,1,1.091-2.357l7.67-8.936h-6.649c-1.337,0-1.971-.563-1.971-1.795v-.246c0-1.161.634-1.795,1.971-1.795H642.7a1.675,1.675,0,0,1,1.9,1.724v.246a2.93,2.93,0,0,1-1.055,2.322l-7.88,9.042h7.282c1.337,0,1.971.563,1.971,1.794v.211c0,1.2-.634,1.83-1.971,1.83H631.479a1.7,1.7,0,0,1-1.9-1.759Z" transform="translate(-538.986 -155.895)"/></g><path class="b" d="M341.119,123.687a12.947,12.947,0,1,0-14.359,20.747,3.324,3.324,0,0,1,1.565,1.265l2.038,3.121a1.422,1.422,0,0,0,2.381,0l2.037-3.121a3.325,3.325,0,0,1,1.565-1.265,12.939,12.939,0,0,0,4.772-20.747Zm-9.565,17.15a8.429,8.429,0,1,1,8.429-8.429A8.429,8.429,0,0,1,331.554,140.837Z" transform="translate(-168.135 2314.526)"/></g></svg>